# xmcd CD database file
#
# Track frame offsets:
#	150
#	15397
#	33157
#	51942
#	63860
#	75787
#	94010
#	108170
#	130407
#	142285
#	154562
#	170950
#	182425
#	196127
#	211142
#	225657
#
# Disc length: 3330 seconds
#
# Revision: 0
# Processed by: cddbd v1.5.1PL2 Copyright (c) Steve Scherf et al.
# Submitted via: CDex 1.51
#
DISCID=c60d0010
DTITLE=Tennessee Five - Shut Up And Drive
DYEAR=2000
DGENRE=Country
TTITLE0=Down At The Twist And Shout
TTITLE1=Eighteen Wheels
TTITLE2=Lucky Me, Lucky You
TTITLE3=Your Cheatin' Heart
TTITLE4=Wild At Heart
TTITLE5=Shut Up And Drive
TTITLE6=Emotional Girl
TTITLE7=Losing Your Love
TTITLE8=Sugar Moon
TTITLE9=Dim Lights
TTITLE10=I Know A Heartache
TTITLE11=Never Ending Love
TTITLE12=Guitars, Cadillacs
TTITLE13=Tonight The Heartache's On Me
TTITLE14=Cleopatra, Queen Of Denial
TTITLE15=Angel Of Montgomery
EXTD=YEAR: 2000
EXTT0=
EXTT1=
EXTT2=
EXTT3=
EXTT4=
EXTT5=
EXTT6=
EXTT7=
EXTT8=
EXTT9=
EXTT10=
EXTT11=
EXTT12=
EXTT13=
EXTT14=
EXTT15=
PLAYORDER=
